<svg width="24" height="24" viewBox="0 0 24 24" fill="none" xmlns="http://www.w3.org/2000/svg">
<path fill-rule="evenodd" clip-rule="evenodd" d="M2.13641 2.1336C1.78494 2.48507 1.78494 3.05492 2.13641 3.40639L10.7278 11.9977L2.13641 20.5891C1.78493 20.9406 1.78493 21.5104 2.13641 21.8619C2.48788 22.2134 3.05773 22.2134 3.4092 21.8619L12.0006 13.2705L20.5919 21.8619C20.9434 22.2134 21.5132 22.2134 21.8647 21.8619C22.2162 21.5104 22.2162 20.9406 21.8647 20.5891L13.2733 11.9977L21.8647 3.4064C22.2162 3.05492 22.2162 2.48508 21.8647 2.1336C21.5132 1.78213 20.9434 1.78213 20.5919 2.1336L12.0006 10.7249L3.40921 2.1336C3.05773 1.78213 2.48789 1.78213 2.13641 2.1336Z" fill="#0F1111"/>
</svg>
